# xmcd
#
# Track frame offsets: 
#        150
#        13664
#        31375
#        42639
#        53202
#        63758
#        85514
#        95879
#        113163
#        122896
#        136109
#        151549
#        165444
#        177314
#        192210
#        204691
#        223537
#        231878
#        245089
#
# Disc length: 3355 seconds
#
# Revision: 0
# Processed by: cddbd v1.5.2PL0 Copyright (c) Steve Scherf et al.
# Submitted via: ExactAudioCopy v1.1
#
DISCID=020d1913
DTITLE=Big Walter Horton - Harmonica Blues Essentialsl
DYEAR=1900
DGENRE=Blues
TTITLE0=Easy
TTITLE1=Hey Little Girl
TTITLE2=Evalena
TTITLE3=Have A Good Time
TTITLE4=It`s You Baby
TTITLE5=Talk About You Daddy
TTITLE6=Need My Baby
TTITLE7=Stockyard Blues
TTITLE8=That`s Wrong Little Mama
TTITLE9=Ain`t It A Shame
TTITLE10=When The Moon Rise High
TTITLE11=Back Home To Mama
TTITLE12=She Left Me A Mule To Ride
TTITLE13=Mr. Freddie`s Blues
TTITLE14=Crawling King Snake
TTITLE15=She`s Got A Nickel (Telephone Blues)
TTITLE16=Don`t Get Around Much Anymore
TTITLE17=I Hate To See The Sun Go Down
TTITLE18=La Cucaracha-La Paloma
EXTD=
EXTT0=
EXTT1=
EXTT2=
EXTT3=
EXTT4=
EXTT5=
EXTT6=
EXTT7=
EXTT8=
EXTT9=
EXTT10=
EXTT11=
EXTT12=
EXTT13=
EXTT14=
EXTT15=
EXTT16=
EXTT17=
EXTT18=
PLAYORDER=
